<?xml version="1.0" encoding="UTF-8"?><svg id="Layer_2" xmlns="http://www.w3.org/2000/svg" viewBox="0 0 44 44"><g id="Layer_2-2"><g><path d="M37,0H7C3.13,0,0,3.13,0,7v30c0,3.87,3.13,7,7,7h30c3.87,0,7-3.13,7-7V7c0-3.87-3.13-7-7-7Zm5.5,37c0,3.03-2.47,5.5-5.5,5.5H7c-3.03,0-5.5-2.47-5.5-5.5V7C1.5,3.97,3.97,1.5,7,1.5h30c3.03,0,5.5,2.47,5.5,5.5v30Z"/><path d="M35.5,5.05c-2.4,0-4.15,1.79-4.15,4.25,0,2.32,1.81,4.14,4.13,4.15,.06,0,.12,0,.19,0,.99,0,1.93-.38,2.65-1.07,.84-.8,1.33-1.96,1.33-3.19,0-2.33-1.82-4.15-4.15-4.15Zm1.79,6.25c-.48,.45-1.1,.68-1.75,.65h-.04c-1.49,0-2.65-1.17-2.65-2.65,0-1.62,1.09-2.75,2.65-2.75s2.65,1.16,2.65,2.65c0,.82-.31,1.58-.86,2.1Z"/><path d="M22,14.35c-4.77,0-8.65,3.83-8.65,8.55s3.8,8.65,8.65,8.65,8.65-3.83,8.65-8.55-3.88-8.65-8.65-8.65Zm0,15.7c-4.01,0-7.15-3.14-7.15-7.15s3.21-7.05,7.15-7.05,7.15,3.21,7.15,7.15-3.21,7.05-7.15,7.05Z"/><path d="M22,10.15c-6.96,0-12.85,5.88-12.85,12.85s5.88,12.85,12.85,12.85,12.85-5.88,12.85-12.85-5.88-12.85-12.85-12.85Zm0,24.2c-6.15,0-11.35-5.2-11.35-11.35s5.2-11.35,11.35-11.35,11.35,5.2,11.35,11.35-5.2,11.35-11.35,11.35Z"/></g></g></svg>