<?xml version="1.0" encoding="UTF-8"?><svg id="Layer_2" xmlns="http://www.w3.org/2000/svg" viewBox="0 0 44 44"><g id="Layer_2-2"><g><path d="M37,0H7C3.13,0,0,3.13,0,7v30c0,3.87,3.13,7,7,7h30c3.87,0,7-3.13,7-7V7c0-3.87-3.13-7-7-7Zm5.5,37c0,3.03-2.47,5.5-5.5,5.5H7c-3.03,0-5.5-2.47-5.5-5.5V7C1.5,3.97,3.97,1.5,7,1.5h30c3.03,0,5.5,2.47,5.5,5.5v30Z"/><path d="M31.29,15.44c-.78-.2-1.53-.2-2.25-.2-2,0-3.6,.56-4.86,1.71h0c0-.82-.46-1.28-1.27-1.28h-4.49c-.84,0-1.27,.43-1.27,1.27v17.44c0,.81,.46,1.27,1.27,1.27h4.66c1.01,0,1.35-.34,1.35-1.35v-8.55c0-.89,.17-1.82,.32-2.56,.24-.86,.8-1.31,1.79-1.45,1.59-.21,2.43,.4,2.7,1.95,.08,.55,.08,1.11,.08,1.71v8.81c0,1.01,.34,1.35,1.35,1.35h4.58c.88,0,1.35-.2,1.35-1.27v-9.41c0-1.83-.14-3.25-.46-4.59-.69-2.66-2.33-4.29-4.86-4.86Zm3.82,18.63h-4.29v-8.66c0-.62,0-1.26-.1-1.94-.41-2.38-1.96-3.51-4.39-3.2-1.58,.23-2.63,1.1-3.05,2.58-.17,.87-.36,1.89-.36,2.91v8.4h-4.28V17.17h4.03v1.75c0,.3,.18,.58,.46,.69,.28,.11,.6,.05,.82-.16l.26-.26s.06-.07,.09-.11c1.09-1.6,2.6-2.35,4.73-2.35,.66,0,1.29,0,1.91,.16,2.01,.45,3.2,1.64,3.75,3.76,.29,1.21,.41,2.52,.41,4.23v9.18Z"/><path d="M13.84,15.59h-4.66c-.94,0-1.27,.33-1.27,1.25-.09,3.03-.09,5.85-.09,8.83v8.72c0,.84,.43,1.27,1.27,1.27h4.75c.81,0,1.27-.46,1.27-1.27V16.86c0-.81-.46-1.27-1.27-1.27Zm-.23,18.56h-4.28v-8.49c0-2.89,0-5.63,.08-8.57h4.21v17.06Z"/><path d="M11.45,6.35h0c-2.31,.21-4.05,2.02-4.05,4.2s1.81,4.03,4.12,4.03,4.12-1.85,4.12-4.12-1.88-4.11-4.18-4.11Zm.06,6.73c-1.47,0-2.62-1.11-2.62-2.53s1.15-2.57,2.62-2.7c1.39,0,2.62,1.22,2.62,2.62s-1.17,2.62-2.62,2.62Z"/></g></g></svg>